# xmcd CD database file
#
# Track frame offsets:
#	150
#	67615
#	122293
#	177643
#	224173
#	281188
#
# Disc length: 4670 seconds
#
# Revision: 0
# Processed by: cddbd v1.5.2PL0 Copyright (c) Steve Scherf et al.
# Submitted via: CDex 1.51
#
DISCID=5b123c06
DTITLE=Chuck Wilson - Neil Stephen Cohen - Shakuhachi Soundscapes
DYEAR=2007
DGENRE=New Age
TTITLE0=Wilson/Cohen - Emptiness
TTITLE1=Wilson/Cohen - Mysticall Rain in D
TTITLE2=Wilson/Cohen - Mystical Rain in G
TTITLE3=Wilson/Cohen - Spacious Mind
TTITLE4=Wilson/Cohen - Temple Meditation
TTITLE5=Wilson/Cohen - Journey
EXTD=YEAR: 2007
EXTT0=
EXTT1=
EXTT2=
EXTT3=
EXTT4=
EXTT5=
PLAYORDER=
